Coordinates
version=1
nRows=9
nColumns=24
inDegrees=yes

Units are S.I. units (second, meters, Newtons, ...)
Angles are in degrees.

endheader
time	pelvis_tilt	pelvis_list	pelvis_rotation	pelvis_tx	pelvis_ty	pelvis_tz	hip_flexion_r	hip_adduction_r	hip_rotation_r	knee_angle_r	ankle_angle_r	subtalar_angle_r	mtp_angle_r	hip_flexion_l	hip_adduction_l	hip_rotation_l	knee_angle_l	ankle_angle_l	subtalar_angle_l	mtp_angle_l	lumbar_extension	lumbar_bending	lumbar_rotation
      5.18000000	     12.16750017	     -7.59411021	     14.03614379	      0.61289574	      0.93393695	     -0.23839439	     -6.95758322	     12.80576307	     -5.78044067	    -11.29332464	     21.48180691	     -4.82106637	      0.00000000	      5.04119747	     -8.19242718	     10.64023311	    -67.13307893	     14.17510450	     -2.47663387	      0.00000000	    -25.30511882	     10.86023792	    -11.20414180
      5.18500000	     12.14642407	     -7.28058675	     13.73830556	      0.61899859	      0.93479278	     -0.23818762	     -7.65495174	     12.53874877	     -5.61224504	    -10.86779990	     21.58580180	     -4.59556749	      0.00000000	      5.67197732	     -7.58098667	     10.38962973	    -66.60416794	     14.75938201	     -2.40660953	      0.00000000	    -25.43129445	     10.40735765	    -10.77952775
      5.19000000	     12.05384354	     -7.02301638	     13.61313988	      0.62506130	      0.93544857	     -0.23809012	     -8.25043993	     12.34404575	     -5.58487625	    -10.40488911	     21.59660611	     -4.52674311	      0.00000000	      6.43869300	     -7.01526063	     10.32342065	    -66.03750296	     15.34144266	     -2.17903254	      0.00000000	    -25.43203283	     10.05174957	    -10.55859284
      5.19500000	     12.04242714	     -6.72585853	     13.28237936	      0.63112269	      0.93622566	     -0.23792239	     -8.94327815	     12.07347262	     -5.41980333	     -9.99358053	     21.69839005	     -4.27093550	      0.00000000	      7.01215888	     -6.44470009	     10.03627196	    -65.31643619	     15.87875653	     -2.03692457	      0.00000000	    -25.57133203	      9.62379878	    -10.10098147
      5.20000000	     12.02634362	     -6.45313372	     13.03908990	      0.63718244	      0.93691826	     -0.23778216	     -9.62423677	     11.84525314	     -5.31585591	     -9.55067991	     21.73007468	     -4.11849224	      0.00000000	      7.60248997	     -5.91451727	      9.83209912	    -64.52402303	     16.39201515	     -1.79444448	      0.00000000	    -25.67943278	      9.23693764	     -9.73903504
      5.20500000	     11.92434008	     -6.23668071	     12.90286540	      0.64318452	      0.93740248	     -0.23774818	    -10.18187078	     11.67253772	     -5.31422359	     -9.11081185	     21.72148958	     -4.01902653	      0.00000000	      8.31787903	     -5.41838289	      9.75658715	    -63.69019138	     16.88519314	     -1.46831752	      0.00000000	    -25.66697656	      8.93677531	     -9.49820543
      5.21000000	     11.93043183	     -5.97945266	     12.55406630	      0.64920713	      0.93804587	     -0.23758798	    -10.86598659	     11.42404357	     -5.17923304	     -8.71688726	     21.78802450	     -3.74628321	      0.00000000	      8.80711266	     -4.94183839	      9.44682885	    -62.69374975	     17.33793666	     -1.23867928	      0.00000000	    -25.81782607	      8.54571530	     -9.01121445
      5.21500000	     11.91365448	     -5.75511140	     12.31224828	      0.65520594	      0.93854939	     -0.23747021	    -11.51027074	     11.22966672	     -5.10297861	     -8.30500452	     21.81355565	     -3.58140188	      0.00000000	      9.33786400	     -4.50175080	      9.25305462	    -61.64489117	     17.78704857	     -0.91680138	      0.00000000	    -25.92177532	      8.20974103	     -8.65138957
      5.22000000	     11.82189503	     -5.58411874	     12.15865387	      0.66117770	      0.93887872	     -0.23744913	    -12.04974973	     11.09006506	     -5.11177627	     -7.89617602	     21.78975314	     -3.46332641	      0.00000000	      9.96603103	     -4.09951439	      9.16705272	    -60.54846959	     18.16805616	     -0.50783155	      0.00000000	    -25.91518863	      7.95746397	     -8.37948165
